# xmcd CD database file
#
# Track frame offsets:
#	150
#	24721
#	54495
#	77960
#	99329
#	133135
#	158385
#	193513
#	213387
#	238935
#	264610
#
# Disc length: 3720 seconds
#
# Revision: 0
# Processed by: cddbd v1.5.2PL0 Copyright (c) Steve Scherf et al.
# Submitted via: CDex 1.51
#
DISCID=940e860b
DTITLE=Low Motion Trio - Song
DYEAR=1900
DGENRE=jazz
TTITLE0=The very thought
TTITLE1=Song
TTITLE2=Siddhi
TTITLE3=Song for Eddie
TTITLE4=Slow motion
TTITLE5=Getting home
TTITLE6=Waltse for Dave
TTITLE7=Marathon man
TTITLE8=Jnana
TTITLE9=No cash, no good
TTITLE10=Ostinato
EXTD=
EXTT0=
EXTT1=
EXTT2=
EXTT3=
EXTT4=
EXTT5=
EXTT6=
EXTT7=
EXTT8=
EXTT9=
EXTT10=
PLAYORDER=
